<svg xmlns="http://www.w3.org/2000/svg" viewBox="0 0 256 292">
  <path d="M223.774 57.34c-.201-1.46-1.48-2.268-2.537-2.357-1.055-.088-23.383-1.743-23.383-1.743s-15.507-15.395-17.209-17.099c-1.703-1.703-5.029-1.185-6.32-.805-.19.056-3.388 1.046-8.678 2.68-5.18-14.906-14.322-28.604-30.405-28.604-.444 0-.901.018-1.358.044C129.31 3.407 123.94.779 119.396.779c-37.465 0-55.364 46.835-60.952 70.634-14.558 4.514-24.826 7.691-26.086 8.072-8.079 2.532-8.324 2.777-9.38 10.412C22.27 95.756 0 268.186 0 268.186l163.441 30.608 88.34-19.06S223.974 58.8 223.774 57.34zM156.2 40.61l-14.416 4.467c.003-.263.005-.527.005-.795 0-8.143-1.131-14.716-2.996-19.864 7.437 1.422 12.414 9.48 17.407 16.192zm-30.904-15.98c2.07 5.166 3.384 12.538 3.384 22.59 0 .474-.004.942-.011 1.404-8.452 2.618-17.682 5.48-26.912 8.34 5.192-19.955 14.93-33.08 23.539-32.334zM119.476 8.77c2.489 0 4.959 1.23 7.193 3.558C114.98 18.33 102.83 38.582 97.776 58.765l-21.29 6.598C82.78 43.098 96.318 8.77 119.476 8.77z" fill="#95BF47"/>
  <path d="M221.237 54.983c-1.055-.088-23.383-1.743-23.383-1.743s-15.507-15.395-17.209-17.099c-.637-.634-1.496-.952-2.394-1.07l-14.81 302.123 88.34-19.06S223.974 58.8 223.774 57.34c-.201-1.46-1.48-2.268-2.537-2.357" fill="#5E8E3E"/>
  <path d="M135.242 104.585l-11.069 32.926s-9.698-5.176-21.586-5.176c-17.428 0-18.305 10.937-18.305 13.693 0 15.038 39.2 20.8 39.2 56.024 0 27.713-17.577 45.558-41.277 45.558-28.44 0-42.984-17.7-42.984-17.7l7.615-25.16s14.95 12.835 27.565 12.835c8.243 0 11.596-6.49 11.596-11.232 0-19.616-32.16-20.491-32.16-52.724 0-27.129 19.472-53.382 58.778-53.382 15.145 0 22.627 4.338 22.627 4.338" fill="#FFF"/>
</svg>
